<svg width="30" height="30" viewBox="0 0 30 30" fill="none" xmlns="http://www.w3.org/2000/svg">
<circle cx="15" cy="15" r="14" stroke="black"/>
<path d="M13.0486 15.0266C13.156 15.1141 16.9621 18.8987 18.806 20.7396C19.0039 20.9375 19.1175 21.1538 19.03 21.4361C18.9011 21.8564 18.3995 22.0129 18.0543 21.7414C17.9991 21.6969 17.95 21.6447 17.8994 21.5941C15.8928 19.586 13.8847 17.5778 11.8781 15.5697C11.4946 15.1862 11.4946 14.8732 11.8811 14.4882C13.8939 12.4755 15.9035 10.4627 17.9209 8.4546C18.0313 8.34568 18.1771 8.25056 18.3228 8.20301C18.5652 8.1263 18.8398 8.26437 18.9717 8.48528C19.1067 8.70926 19.0898 8.99 18.9242 9.19556C18.872 9.26153 18.8091 9.31829 18.7493 9.37812C16.9237 11.2022 13.1529 14.9453 13.0486 15.0266Z" fill="black"/>
</svg>
